<svg xmlns="http://www.w3.org/2000/svg" xmlns:xlink="http://www.w3.org/1999/xlink" width="500" zoomAndPan="magnify" viewBox="0 0 375 374.999991" height="500" preserveAspectRatio="xMidYMid meet" version="1.0"><defs><g/><clipPath id="913d3e330a"><path d="M 46 111 L 192.984375 111 L 192.984375 252.441406 L 46 252.441406 Z M 46 111 " clip-rule="nonzero"/></clipPath><clipPath id="e622ef14c2"><path d="M 51.070312 101.210938 L 324 101.210938 L 324 273.789062 L 51.070312 273.789062 Z M 51.070312 101.210938 " clip-rule="nonzero"/></clipPath><clipPath id="ae42947cca"><path d="M 78.820312 101.210938 L 296.179688 101.210938 C 303.539062 101.210938 310.597656 104.136719 315.800781 109.339844 C 321.003906 114.542969 323.929688 121.601562 323.929688 128.960938 L 323.929688 246.039062 C 323.929688 253.398438 321.003906 260.457031 315.800781 265.660156 C 310.597656 270.863281 303.539062 273.789062 296.179688 273.789062 L 78.820312 273.789062 C 71.460938 273.789062 64.402344 270.863281 59.199219 265.660156 C 53.996094 260.457031 51.070312 253.398438 51.070312 246.039062 L 51.070312 128.960938 C 51.070312 121.601562 53.996094 114.542969 59.199219 109.339844 C 64.402344 104.136719 71.460938 101.210938 78.820312 101.210938 Z M 78.820312 101.210938 " clip-rule="nonzero"/></clipPath><clipPath id="558e462c75"><path d="M 46 111 L 192.984375 111 L 192.984375 252.441406 L 46 252.441406 Z M 46 111 " clip-rule="nonzero"/></clipPath><clipPath id="6048e45147"><path d="M 192.726562 139 L 282 139 L 282 252.441406 L 192.726562 252.441406 Z M 192.726562 139 " clip-rule="nonzero"/></clipPath><clipPath id="2c655f4a94"><path d="M 206 111 L 295.476562 111 L 295.476562 224 L 206 224 Z M 206 111 " clip-rule="nonzero"/></clipPath></defs><g clip-path="url(#913d3e330a)"><path fill="#000000" d="M 142.789062 252.019531 C 128.457031 252.019531 113.351562 248.476562 100.636719 241.464844 C 99.097656 240.617188 98.019531 239.152344 97.710938 237.535156 L 111.964844 237.535156 C 116.359375 237.535156 116.359375 230.90625 111.964844 230.90625 C 101.640625 230.90625 91.3125 230.90625 80.988281 230.90625 C 76.597656 230.90625 76.597656 224.28125 80.988281 224.28125 L 102.410156 224.28125 C 103.488281 224.125 104.800781 222.738281 104.800781 221.121094 C 104.800781 219.269531 103.335938 217.804688 101.484375 217.804688 L 83.917969 217.804688 C 79.523438 217.804688 79.523438 211.179688 83.917969 211.179688 L 103.179688 211.179688 C 104.492188 211.101562 105.800781 211.488281 106.957031 212.335938 C 118.132812 220.425781 129.226562 225.589844 143.328125 225.589844 C 151.652344 225.589844 160.820312 223.277344 162.671875 215.648438 L 146.257812 215.648438 C 141.867188 215.648438 141.867188 209.023438 146.257812 209.023438 L 162.671875 209.023438 C 166.753906 208.480469 166.371094 202.394531 162.210938 202.394531 C 151.035156 202.394531 139.9375 202.394531 128.765625 202.394531 C 124.371094 202.394531 124.371094 195.765625 128.765625 195.765625 C 132.617188 195.765625 136.394531 195.765625 140.246094 195.765625 C 144.640625 195.765625 144.640625 189.140625 140.246094 189.140625 C 125.21875 189.140625 110.195312 189.140625 95.167969 189.140625 C 90.773438 189.140625 90.773438 182.511719 95.167969 182.511719 L 120.367188 182.511719 C 124.757812 182.511719 124.757812 175.886719 120.367188 175.886719 C 109.65625 175.886719 98.941406 175.886719 88.230469 175.886719 C 83.839844 175.886719 83.839844 169.257812 88.230469 169.257812 L 106.570312 169.257812 C 110.964844 169.257812 110.964844 162.632812 106.570312 162.632812 L 72.589844 162.632812 C 68.195312 162.632812 68.195312 156.003906 72.589844 156.003906 L 93.394531 156.003906 C 97.015625 155.695312 97.171875 149.453125 92.855469 149.453125 L 87.152344 149.453125 C 82.761719 149.453125 82.761719 142.828125 87.152344 142.828125 L 102.949219 142.828125 C 104.105469 142.671875 105.492188 141.285156 105.492188 139.589844 C 105.492188 137.972656 104.261719 136.585938 102.71875 136.355469 L 84.6875 136.355469 C 80.292969 136.355469 80.292969 129.726562 84.6875 129.726562 L 112.890625 129.726562 C 117.207031 129.726562 117.128906 123.484375 113.429688 123.175781 L 94.628906 123.175781 C 90.234375 123.175781 90.234375 116.550781 94.628906 116.550781 L 113.816406 116.550781 C 115.28125 115.855469 116.820312 115.316406 118.4375 114.777344 C 132.773438 110 151.574219 111.464844 165.367188 116.320312 C 171.917969 118.628906 178.007812 121.789062 183.707031 125.644531 C 186.40625 127.492188 187.097656 131.191406 185.25 133.886719 L 176.15625 147.066406 C 174.382812 149.6875 170.839844 150.378906 168.144531 148.761719 C 158.511719 142.828125 148.414062 138.359375 137.320312 138.359375 C 128.070312 138.359375 119.75 141.671875 119.75 150.6875 C 119.75 159.242188 126.300781 162.015625 134.699219 164.558594 C 160.515625 172.417969 192.726562 176.117188 192.726562 209.636719 C 192.726562 238.613281 169.992188 252.019531 142.789062 252.019531 Z M 132.078125 208.867188 L 137.394531 208.867188 C 141.789062 208.867188 141.789062 215.496094 137.394531 215.496094 L 132.078125 215.496094 C 127.761719 215.496094 127.761719 208.867188 132.078125 208.867188 Z M 49.625 129.417969 C 52.476562 129.417969 57.175781 128.648438 57.175781 132.734375 C 57.175781 136.816406 52.476562 136.046875 49.625 136.046875 C 45.234375 136.046875 45.234375 129.417969 49.625 129.417969 Z M 62.800781 129.417969 L 75.363281 129.417969 C 79.753906 129.417969 79.753906 136.046875 75.363281 136.046875 L 62.800781 136.046875 C 58.410156 136.046875 58.410156 129.417969 62.800781 129.417969 Z M 105.492188 195.613281 L 113.660156 195.613281 C 118.054688 195.613281 118.054688 202.242188 113.660156 202.242188 L 105.492188 202.242188 C 101.101562 202.242188 101.101562 195.613281 105.492188 195.613281 Z M 81.449219 116.242188 L 86.382812 116.242188 C 90.773438 116.242188 90.773438 122.867188 86.382812 122.867188 L 81.449219 122.867188 C 77.058594 122.867188 77.058594 116.242188 81.449219 116.242188 Z M 75.054688 169.027344 L 79.753906 169.027344 C 84.148438 169.027344 84.148438 175.65625 79.753906 175.65625 L 75.054688 175.65625 C 70.664062 175.730469 70.664062 169.027344 75.054688 169.027344 Z M 51.167969 155.773438 L 64.035156 155.773438 C 68.425781 155.773438 68.425781 162.402344 64.035156 162.402344 L 51.167969 162.402344 C 46.773438 162.402344 46.773438 155.773438 51.167969 155.773438 Z M 68.351562 224.28125 C 71.203125 224.28125 75.980469 223.507812 75.980469 227.59375 C 75.980469 231.675781 71.277344 230.90625 68.351562 230.90625 C 63.957031 230.90625 63.957031 224.28125 68.351562 224.28125 Z M 68.351562 224.28125 " fill-opacity="1" fill-rule="evenodd"/></g><g clip-path="url(#e622ef14c2)"><g clip-path="url(#ae42947cca)"><path fill="#000000" d="M 51.070312 101.210938 L 324.09375 101.210938 L 324.09375 273.789062 L 51.070312 273.789062 Z M 51.070312 101.210938 " fill-opacity="1" fill-rule="nonzero"/></g></g><g fill="#000000" fill-opacity="1"><g transform="translate(186.388282, 190.461734)"><g/></g></g><g clip-path="url(#558e462c75)"><path fill="#ffffff" d="M 142.789062 252.019531 C 128.457031 252.019531 113.351562 248.476562 100.636719 241.464844 C 99.097656 240.617188 98.019531 239.152344 97.710938 237.535156 L 111.964844 237.535156 C 116.359375 237.535156 116.359375 230.90625 111.964844 230.90625 C 101.640625 230.90625 91.3125 230.90625 80.988281 230.90625 C 76.597656 230.90625 76.597656 224.28125 80.988281 224.28125 L 102.410156 224.28125 C 103.488281 224.125 104.800781 222.738281 104.800781 221.121094 C 104.800781 219.269531 103.335938 217.804688 101.484375 217.804688 L 83.917969 217.804688 C 79.523438 217.804688 79.523438 211.179688 83.917969 211.179688 L 103.179688 211.179688 C 104.492188 211.101562 105.800781 211.488281 106.957031 212.335938 C 118.132812 220.425781 129.226562 225.589844 143.328125 225.589844 C 151.652344 225.589844 160.820312 223.277344 162.671875 215.648438 L 146.257812 215.648438 C 141.867188 215.648438 141.867188 209.023438 146.257812 209.023438 L 162.671875 209.023438 C 166.753906 208.480469 166.371094 202.394531 162.210938 202.394531 C 151.035156 202.394531 139.9375 202.394531 128.765625 202.394531 C 124.371094 202.394531 124.371094 195.765625 128.765625 195.765625 C 132.617188 195.765625 136.394531 195.765625 140.246094 195.765625 C 144.640625 195.765625 144.640625 189.140625 140.246094 189.140625 C 125.21875 189.140625 110.195312 189.140625 95.167969 189.140625 C 90.773438 189.140625 90.773438 182.511719 95.167969 182.511719 L 120.367188 182.511719 C 124.757812 182.511719 124.757812 175.886719 120.367188 175.886719 C 109.65625 175.886719 98.941406 175.886719 88.230469 175.886719 C 83.839844 175.886719 83.839844 169.257812 88.230469 169.257812 L 106.570312 169.257812 C 110.964844 169.257812 110.964844 162.632812 106.570312 162.632812 L 72.589844 162.632812 C 68.195312 162.632812 68.195312 156.003906 72.589844 156.003906 L 93.394531 156.003906 C 97.015625 155.695312 97.171875 149.453125 92.855469 149.453125 L 87.152344 149.453125 C 82.761719 149.453125 82.761719 142.828125 87.152344 142.828125 L 102.949219 142.828125 C 104.105469 142.671875 105.492188 141.285156 105.492188 139.589844 C 105.492188 137.972656 104.261719 136.585938 102.71875 136.355469 L 84.6875 136.355469 C 80.292969 136.355469 80.292969 129.726562 84.6875 129.726562 L 112.890625 129.726562 C 117.207031 129.726562 117.128906 123.484375 113.429688 123.175781 L 94.628906 123.175781 C 90.234375 123.175781 90.234375 116.550781 94.628906 116.550781 L 113.816406 116.550781 C 115.28125 115.855469 116.820312 115.316406 118.4375 114.777344 C 132.773438 110 151.574219 111.464844 165.367188 116.320312 C 171.917969 118.628906 178.007812 121.789062 183.707031 125.644531 C 186.40625 127.492188 187.097656 131.191406 185.25 133.886719 L 176.15625 147.066406 C 174.382812 149.6875 170.839844 150.378906 168.144531 148.761719 C 158.511719 142.828125 148.414062 138.359375 137.320312 138.359375 C 128.070312 138.359375 119.75 141.671875 119.75 150.6875 C 119.75 159.242188 126.300781 162.015625 134.699219 164.558594 C 160.515625 172.417969 192.726562 176.117188 192.726562 209.636719 C 192.726562 238.613281 169.992188 252.019531 142.789062 252.019531 Z M 132.078125 208.867188 L 137.394531 208.867188 C 141.789062 208.867188 141.789062 215.496094 137.394531 215.496094 L 132.078125 215.496094 C 127.761719 215.496094 127.761719 208.867188 132.078125 208.867188 Z M 49.625 129.417969 C 52.476562 129.417969 57.175781 128.648438 57.175781 132.734375 C 57.175781 136.816406 52.476562 136.046875 49.625 136.046875 C 45.234375 136.046875 45.234375 129.417969 49.625 129.417969 Z M 62.800781 129.417969 L 75.363281 129.417969 C 79.753906 129.417969 79.753906 136.046875 75.363281 136.046875 L 62.800781 136.046875 C 58.410156 136.046875 58.410156 129.417969 62.800781 129.417969 Z M 105.492188 195.613281 L 113.660156 195.613281 C 118.054688 195.613281 118.054688 202.242188 113.660156 202.242188 L 105.492188 202.242188 C 101.101562 202.242188 101.101562 195.613281 105.492188 195.613281 Z M 81.449219 116.242188 L 86.382812 116.242188 C 90.773438 116.242188 90.773438 122.867188 86.382812 122.867188 L 81.449219 122.867188 C 77.058594 122.867188 77.058594 116.242188 81.449219 116.242188 Z M 75.054688 169.027344 L 79.753906 169.027344 C 84.148438 169.027344 84.148438 175.65625 79.753906 175.65625 L 75.054688 175.65625 C 70.664062 175.730469 70.664062 169.027344 75.054688 169.027344 Z M 51.167969 155.773438 L 64.035156 155.773438 C 68.425781 155.773438 68.425781 162.402344 64.035156 162.402344 L 51.167969 162.402344 C 46.773438 162.402344 46.773438 155.773438 51.167969 155.773438 Z M 68.351562 224.28125 C 71.203125 224.28125 75.980469 223.507812 75.980469 227.59375 C 75.980469 231.675781 71.277344 230.90625 68.351562 230.90625 C 63.957031 230.90625 63.957031 224.28125 68.351562 224.28125 Z M 68.351562 224.28125 " fill-opacity="1" fill-rule="evenodd"/></g><g clip-path="url(#6048e45147)"><path fill="#ffffff" d="M 266.625 224.105469 C 266.625 210.136719 266.625 196.382812 266.625 182.625 C 266.449219 182.554688 266.269531 182.488281 266.09375 182.417969 C 258.777344 191.605469 251.460938 200.785156 243.878906 210.300781 C 241.183594 206.941406 238.597656 203.722656 235.785156 200.21875 C 221.984375 217.558594 208.296875 234.753906 194.496094 252.097656 C 193.867188 251.59375 193.363281 251.191406 192.765625 250.710938 C 222.140625 213.777344 251.410156 176.976562 281.050781 139.710938 C 281.050781 168.195312 281.050781 196.082031 281.050781 224.105469 C 276.3125 224.105469 271.699219 224.105469 266.625 224.105469 Z M 266.625 224.105469 " fill-opacity="1" fill-rule="nonzero"/></g><g clip-path="url(#2c655f4a94)"><path fill="#ffffff" d="M 206.71875 140.097656 C 217.4375 153.566406 227.824219 166.621094 238.441406 179.960938 C 239.25 178.992188 239.957031 178.167969 240.632812 177.320312 C 257.660156 155.902344 274.683594 134.472656 291.738281 113.070312 C 292.488281 112.128906 293.199219 109.953125 295.078125 112.433594 C 273.675781 139.339844 252.257812 166.269531 230.59375 193.511719 C 227.574219 189.773438 224.699219 186.207031 221.488281 182.234375 C 221.363281 183.277344 221.234375 183.875 221.234375 184.476562 C 221.222656 190.6875 221.296875 196.898438 221.167969 203.105469 C 221.140625 204.382812 220.664062 205.867188 219.890625 206.871094 C 215.699219 212.34375 211.351562 217.695312 206.714844 223.523438 C 206.71875 195.5625 206.71875 168.132812 206.71875 140.097656 Z M 206.71875 140.097656 " fill-opacity="1" fill-rule="nonzero"/></g><g fill="#000000" fill-opacity="1"><g transform="translate(117.885949, 293.423887)"><g><path d="M 8 -17.71875 C 9.976562 -17.71875 11.492188 -17.222656 12.546875 -16.234375 C 13.597656 -15.242188 14.222656 -13.921875 14.421875 -12.265625 L 10.875 -12.265625 C 10.769531 -13.171875 10.46875 -13.875 9.96875 -14.375 C 9.46875 -14.875 8.769531 -15.125 7.875 -15.125 C 7.15625 -15.125 6.566406 -14.945312 6.109375 -14.59375 C 5.660156 -14.25 5.4375 -13.738281 5.4375 -13.0625 C 5.4375 -12.320312 5.707031 -11.742188 6.25 -11.328125 C 6.800781 -10.910156 7.765625 -10.539062 9.140625 -10.21875 C 11.035156 -9.78125 12.429688 -9.113281 13.328125 -8.21875 C 14.222656 -7.332031 14.671875 -6.1875 14.671875 -4.78125 C 14.671875 -3.207031 14.050781 -1.957031 12.8125 -1.03125 C 11.570312 -0.101562 10.050781 0.359375 8.25 0.359375 C 6.132812 0.359375 4.445312 -0.101562 3.1875 -1.03125 C 1.9375 -1.96875 1.226562 -3.335938 1.0625 -5.140625 L 4.609375 -5.140625 C 4.796875 -4.210938 5.210938 -3.492188 5.859375 -2.984375 C 6.515625 -2.484375 7.296875 -2.234375 8.203125 -2.234375 C 9.015625 -2.234375 9.691406 -2.4375 10.234375 -2.84375 C 10.773438 -3.25 11.046875 -3.78125 11.046875 -4.4375 C 11.046875 -5.164062 10.78125 -5.753906 10.25 -6.203125 C 9.726562 -6.660156 8.835938 -7.039062 7.578125 -7.34375 C 5.628906 -7.820312 4.175781 -8.445312 3.21875 -9.21875 C 2.257812 -10 1.78125 -11.140625 1.78125 -12.640625 C 1.78125 -14.179688 2.382812 -15.410156 3.59375 -16.328125 C 4.800781 -17.253906 6.269531 -17.71875 8 -17.71875 Z M 8 -17.71875 "/></g></g></g><g fill="#000000" fill-opacity="1"><g transform="translate(134.474726, 293.423887)"><g><path d="M 5.71875 0 L 2.234375 0 L 2.234375 -17.375 L 5.71875 -17.375 Z M 5.71875 0 "/></g></g></g><g fill="#000000" fill-opacity="1"><g transform="translate(143.109209, 293.423887)"><g><path d="M 10.453125 -17.265625 C 12.597656 -17.015625 14.320312 -16.191406 15.625 -14.796875 C 16.9375 -13.410156 17.59375 -11.445312 17.59375 -8.90625 C 17.59375 -6.351562 16.921875 -4.3125 15.578125 -2.78125 C 14.234375 -1.25 12.503906 -0.351562 10.390625 -0.09375 C 9.804688 -0.03125 9.070312 0 8.1875 0 L 2.234375 0 L 2.234375 -17.375 L 8.234375 -17.375 C 9.117188 -17.375 9.859375 -17.335938 10.453125 -17.265625 Z M 9.609375 -2.8125 C 10.941406 -2.988281 11.992188 -3.601562 12.765625 -4.65625 C 13.535156 -5.71875 13.921875 -7.117188 13.921875 -8.859375 C 13.921875 -10.535156 13.539062 -11.859375 12.78125 -12.828125 C 12.03125 -13.804688 11 -14.378906 9.6875 -14.546875 C 9.164062 -14.617188 8.546875 -14.65625 7.828125 -14.65625 L 5.71875 -14.65625 L 5.71875 -2.75 L 7.78125 -2.75 C 8.632812 -2.75 9.242188 -2.769531 9.609375 -2.8125 Z M 9.609375 -2.8125 "/></g></g></g><g fill="#000000" fill-opacity="1"><g transform="translate(162.794118, 293.423887)"><g><path d="M 10.453125 -17.265625 C 12.597656 -17.015625 14.320312 -16.191406 15.625 -14.796875 C 16.9375 -13.410156 17.59375 -11.445312 17.59375 -8.90625 C 17.59375 -6.351562 16.921875 -4.3125 15.578125 -2.78125 C 14.234375 -1.25 12.503906 -0.351562 10.390625 -0.09375 C 9.804688 -0.03125 9.070312 0 8.1875 0 L 2.234375 0 L 2.234375 -17.375 L 8.234375 -17.375 C 9.117188 -17.375 9.859375 -17.335938 10.453125 -17.265625 Z M 9.609375 -2.8125 C 10.941406 -2.988281 11.992188 -3.601562 12.765625 -4.65625 C 13.535156 -5.71875 13.921875 -7.117188 13.921875 -8.859375 C 13.921875 -10.535156 13.539062 -11.859375 12.78125 -12.828125 C 12.03125 -13.804688 11 -14.378906 9.6875 -14.546875 C 9.164062 -14.617188 8.546875 -14.65625 7.828125 -14.65625 L 5.71875 -14.65625 L 5.71875 -2.75 L 7.78125 -2.75 C 8.632812 -2.75 9.242188 -2.769531 9.609375 -2.8125 Z M 9.609375 -2.8125 "/></g></g></g><g fill="#000000" fill-opacity="1"><g transform="translate(182.479025, 293.423887)"><g><path d="M 17.296875 -17.375 L 17.296875 0 L 13.84375 0 L 13.84375 -7.125 L 5.71875 -7.125 L 5.71875 0 L 2.234375 0 L 2.234375 -17.375 L 5.71875 -17.375 L 5.71875 -9.890625 L 13.84375 -9.890625 L 13.84375 -17.375 Z M 17.296875 -17.375 "/></g></g></g><g fill="#000000" fill-opacity="1"><g transform="translate(202.692534, 293.423887)"><g><path d="M 11.65625 -5.234375 L 5.8125 -5.234375 L 4.078125 0 L 0.375 0 L 6.640625 -17.375 L 11 -17.375 L 17.140625 0 L 13.359375 0 Z M 8.765625 -14.390625 L 6.703125 -7.984375 L 10.78125 -7.984375 Z M 8.765625 -14.390625 "/></g></g></g><g fill="#000000" fill-opacity="1"><g transform="translate(220.992998, 293.423887)"><g><path d="M 17.5 0 L 12.734375 0 L 5.59375 -13.1875 C 5.675781 -11.613281 5.71875 -9.835938 5.71875 -7.859375 L 5.71875 0 L 2.234375 0 L 2.234375 -17.375 L 6.84375 -17.375 L 14.140625 -3.921875 C 14.054688 -5.484375 14.015625 -7.304688 14.015625 -9.390625 L 14.015625 -17.375 L 17.46875 -17.375 Z M 17.5 0 "/></g></g></g><g fill="#000000" fill-opacity="1"><g transform="translate(241.407894, 293.423887)"><g><path d="M 15.828125 -14.65625 L 9.9375 -14.65625 L 9.9375 0 L 6.46875 0 L 6.46875 -14.65625 L 0.578125 -14.65625 L 0.578125 -17.375 L 15.828125 -17.375 Z M 15.828125 -14.65625 "/></g></g></g></svg>